<?xml version="1.0" encoding="UTF-8" standalone="no"?>
<svg id="svg4205" xmlns:rdf="http://www.w3.org/1999/02/22-rdf-syntax-ns#" xmlns="http://www.w3.org/2000/svg" height="64" width="64" version="1.1" xmlns:cc="http://creativecommons.org/ns#" xmlns:dc="http://purl.org/dc/elements/1.1/" viewBox="0 0 64 64.000001">
 <g id="layer1" transform="translate(-23.056 -898.02)">
  <path id="path5020-4" d="m55.057 930.02 32 16-32 16-32-16 32-16z" style="opacity:0.014;fill:#7b0000"/>
  <path id="path8878" style="opacity:.014;fill:#fff" d="m55.056 930.02-32 16 32 16 32-16-32-16z"/>
  <path id="path4296" d="m55.057 906.99c-5.1229 0-9.7681 1.0247-13.219 2.75-3.4506 1.7253-5.8438 4.2469-5.8438 7.2812v27.375c0 3.0344 2.3931 5.5559 5.8438 7.2812 3.4506 1.7253 8.0958 2.75 13.219 2.75 5.1229 0 9.7681-1.0247 13.219-2.75 3.4506-1.7253 5.8438-4.2469 5.8438-7.2812v-27.375c0-3.0344-2.3931-5.5559-5.8438-7.2812-3.4506-1.7253-8.0958-2.75-13.219-2.75z" style="color-rendering:auto;text-decoration-color:#000000;color:#000000;shape-rendering:auto;solid-color:#000000;text-decoration-line:none;fill:#2c5aa0;mix-blend-mode:normal;block-progression:tb;text-indent:0;image-rendering:auto;white-space:normal;text-decoration-style:solid;isolation:auto;text-transform:none"/>
  <path id="path4218" d="m55.057 908.99c4.8527 0 9.2375 0.99572 12.324 2.5391 3.0867 1.5434 4.7383 3.5387 4.7383 5.4922v27.375c0 1.9535-1.6516 3.9488-4.7383 5.4922-3.0867 1.5433-7.4715 2.5391-12.324 2.5391-4.8527 0-9.2395-0.99572-12.326-2.5391-3.0867-1.5434-4.7363-3.5387-4.7363-5.4922v-27.375c0-1.9535 1.6496-3.9488 4.7363-5.4922 3.0867-1.5433 7.4735-2.5391 12.326-2.5391z" style="color-rendering:auto;text-decoration-color:#000000;color:#000000;shape-rendering:auto;solid-color:#000000;text-decoration-line:none;fill:#acf;mix-blend-mode:normal;block-progression:tb;text-indent:0;image-rendering:auto;white-space:normal;text-decoration-style:solid;isolation:auto;text-transform:none"/>
  <path id="path4364" style="color-rendering:auto;text-decoration-color:#000000;color:#000000;shape-rendering:auto;solid-color:#000000;text-decoration-line:none;fill:#d7e3f4;mix-blend-mode:normal;block-progression:tb;text-indent:0;image-rendering:auto;white-space:normal;text-decoration-style:solid;isolation:auto;text-transform:none" d="m55.057 908.99c-4.8527 0-9.2395 0.99572-12.326 2.5391-3.0867 1.5434-4.7363 3.5387-4.7363 5.4922s1.6496 3.9488 4.7363 5.4922c3.0867 1.5433 7.4735 2.5391 12.326 2.5391 4.8527 0 9.2375-0.99572 12.324-2.5391 3.0867-1.5434 4.7383-3.5387 4.7383-5.4922s-1.6516-3.9488-4.7383-5.4922c-3.0867-1.5433-7.4715-2.5391-12.324-2.5391z"/>
 </g>
</svg>
