<?xml version="1.0" encoding="UTF-8" standalone="no"?>
<svg id="svg4205" xmlns:rdf="http://www.w3.org/1999/02/22-rdf-syntax-ns#" xmlns="http://www.w3.org/2000/svg" height="64" width="64" version="1.1" xmlns:cc="http://creativecommons.org/ns#" xmlns:xlink="http://www.w3.org/1999/xlink" viewBox="0 0 64 64.000001" xmlns:dc="http://purl.org/dc/elements/1.1/">
 <defs id="defs4207">
  <linearGradient id="linearGradient33874" y2="917.9" gradientUnits="userSpaceOnUse" x2="54.689" y1="932.78" x1="54.689">
   <stop id="stop33870" style="stop-color:#fc0" offset="0"/>
   <stop id="stop33872" style="stop-color:#ffea96" offset="1"/>
  </linearGradient>
 </defs>
 <g id="layer1" transform="translate(-23.056 -898.02)">
  <path id="path28591" style="stroke-linejoin:round;stroke-dashoffset:7.0362;stroke:#505050;stroke-linecap:round;stroke-width:3;fill:#f77731" d="m55.056 928.09-17.227 8.6133v9.3144l17.227 8.6133 17.227-8.6133v-9.3144z"/>
  <path id="path5020" d="m55.056 930.02-32 16 32 16 32-16-32-16z" style="fill-opacity:.0039216"/>
  <path id="path5029" d="m72.283 936.7-17.227-8.6131v26.541l17.227-8.6134z" style="fill:#ee2a2a"/>
  <path id="path5058" style="fill:#bc2e2e" d="m37.83 936.7 17.227-8.6131v26.541l-17.227-8.6134z"/>
  <path id="path5002" style="fill:#d9483b" d="m55.056 928.09-17.226 8.6131 17.226 8.6134 17.227-8.6134z"/>
  <path id="path5060" d="m32 6.0723l-17.227 8.6137v33.314l17.227 8.613 17.227-8.613v-33.314l-17.227-8.6137z" style="fill:none" transform="translate(23.056 898.02)"/>
  <path id="path33878" style="color-rendering:auto;text-decoration-color:#000000;color:#000000;shape-rendering:auto;solid-color:#000000;text-decoration-line:none;fill:#991f1f;mix-blend-mode:normal;block-progression:tb;text-indent:0;image-rendering:auto;white-space:normal;text-decoration-style:solid;isolation:auto;text-transform:none" d="m35.334 31.852-16.545 8.8203v2.9688l-3.916-1.957v0.44531l8.2422 4.1211v2.7734l-8.2422-4.1211v0.44531l3.916 1.959v2.5898l0.40039 0.19922v-2.5879l8.252 4.125v2.5898l0.40039 0.19922v-2.5879l4.0684 2.0332c0.05653 0.02842 0.12316 0.02842 0.17969 0l8.3945-4.1973v2.5898l0.40039-0.20117v-2.5898l8.2422-4.1211v-0.44531l-3.916 1.957v-2.7715l3.916-1.959v-0.44531l-8.2422 4.1211v-2.9629l-3.9551-2.2832 7.7891-4.0137-0.44141-0.2207-11.74 6.0469-8.1895-4.209 11.426-6.0898zm-11.414 6.5391 8.1797 4.2051-4.6582 2.4004v2.9707l-8.252-4.127v-2.9277zm12.586 2.3848 3.9785 2.2969v2.9316l-8.484 4.241-4.1582-2.0781v-2.9277zm8.3047 3.5137v2.7695l-8.252 4.127v-2.7715zm-21.295 2.1621 8.3945 4.1973c0.05653 0.02842 0.12316 0.02842 0.17969 0l4.0684-2.0332v2.7695l-4.158 2.08-8.484-4.242z" transform="translate(23.056 898.02)"/>
  <path id="path7253" style="fill:url(#linearGradient33874);fill-rule:evenodd" d="m55.756 939.02c-2.7244 0.37366-5.7625-0.8412-7.7994-2.6886-1.5699-1.4238-2.7263-3.6628-2.6475-5.7807 0.15248-4.0955 5.9366-10.767 5.9366-10.767s-2.5956 5.4915 0 6.9145c4.1901 2.2971 5.1932-2.7062 5.1662-5.1337-0.0398-3.569-5.7925-12.699-3.9907-15.702-0.798 5.9976 15.369 17.061 12.86 26.577-0.98381 3.7315-5.7017 6.056-9.5249 6.5804z"/>
 </g>
</svg>
