<?xml version="1.0" encoding="UTF-8" standalone="no"?>
<svg id="svg4205" xmlns:rdf="http://www.w3.org/1999/02/22-rdf-syntax-ns#" xmlns="http://www.w3.org/2000/svg" height="64" width="64" version="1.1" xmlns:cc="http://creativecommons.org/ns#" xmlns:dc="http://purl.org/dc/elements/1.1/" viewBox="0 0 64 64.000001">
 <g id="layer1" transform="translate(-23.056 -898.02)">
  <path id="path28591" style="stroke-linejoin:round;stroke-dashoffset:7.0362;stroke:#707070;stroke-linecap:round;stroke-width:3;fill:#fff" d="m55.056 904.09-17.227 8.6133v33.314l17.227 8.6133 17.227-8.6133v-33.314l-17.227-8.6133z"/>
  <path id="path5020" d="m55.056 930.02-32 16 32 16 32-16-32-16z" style="fill-opacity:.0039216"/>
  <path id="path5029" d="m72.283 912.7-17.227-8.6131v50.541l17.227-8.6134z" style="fill:#fff"/>
  <path id="path5044" style="stroke-linejoin:round;stroke-dashoffset:7.0362;stroke:#575757;stroke-linecap:round;stroke-width:0.4;fill:none" d="m57.21 936.68 2.1533-1.0767 2.1533-1.0767 2.1533-1.0767 2.1533-1.0767 2.1533-1.0767 2.1533-1.0767v-2l-2.1533 1.0767-2.1533 1.0767-2.1533 1.0767-2.1533 1.0767-2.1533 1.0767-2.1533 1.0767v-2l2.1533-1.0767 2.1533-1.0767 2.1533-1.0767 2.1533-1.0767 2.1533-1.0767 2.1533-1.0767v-2l-2.1533 1.0767-2.1533 1.0767-2.1533 1.0767-2.1533 1.0767-2.1533 1.0767-2.1533 1.0767v-2l2.1533-1.0767 2.1533-1.0767 2.1533-1.0767 2.1533-1.0767 2.1533-1.0767 2.1533-1.0767v-2l-2.1533 1.0767-2.1533 1.0767-2.1533 1.0767-2.1533 1.0767-2.1533 1.0767-2.1533 1.0767v-2l2.1533-1.0767 2.1533-1.0767 2.1533-1.0767 2.1533-1.0767 2.1533-1.0767 2.1533-1.0767"/>
  <path id="path5058" style="fill:#b3b3b3" d="m37.83 912.7 17.227-8.6131v50.541l-17.227-8.6134z"/>
  <path id="path5002" style="fill:#f9f9f9" d="m55.056 904.09-17.226 8.6131 17.226 8.6134 17.227-8.6134-17.227-8.6131z"/>
  <path id="path5060" d="m32 6.0723l-17.227 8.6137v33.314l17.227 8.613 17.227-8.613v-33.314l-17.227-8.6137z" style="fill:none" transform="translate(23.056 898.02)"/>
 </g>
</svg>
