<?xml version="1.0" encoding="UTF-8" standalone="no"?>
<svg id="svg4205" xmlns:rdf="http://www.w3.org/1999/02/22-rdf-syntax-ns#" xmlns="http://www.w3.org/2000/svg" height="64" width="64" version="1.1" xmlns:cc="http://creativecommons.org/ns#" xmlns:dc="http://purl.org/dc/elements/1.1/" viewBox="0 0 64 64.000001">
 <g id="layer1" transform="translate(-23.056 -898.02)">
  <path id="path5020" d="m55.056 930.02-32 16 32 16 32-16-32-16z" style="fill-opacity:.0039216"/>
  <g id="g32324" transform="matrix(-1 0 0 1 39.072 13.5)">
   <path id="path32312" d="m-16.485 889.22-14.301 10.406c-0.31617 0.12321-0.52882 0.42261-0.54102 0.76172v0.004c-0.000126 0.008-0.000126 0.0169 0 0.0254-0.000758 0.007-0.0014 0.0143-0.002 0.0215v0.008 0.004 7.7578h0.002v6.4707c-0.03779 0.14131-0.03848 0.28998-0.002 0.43164v6.9375l-2.1172 8.1894c-0.02939 0.11419-0.03472 0.23325-0.01563 0.34961 0.0041 0.0354 0.015 0.0664 0.02344 0.0996 0.01432 0.0505 0.03328 0.0995 0.05664 0.14648 0.03366 0.0685 0.07436 0.12886 0.125 0.1836 0.02204 0.0248 0.04552 0.0483 0.07031 0.0703 0.04138 0.0351 0.08165 0.0668 0.12891 0.0937 0.05774 0.0345 0.11937 0.062 0.18359 0.082 0.03518 0.011 0.06926 0.0185 0.10547 0.0254 0.04518 0.008 0.0909 0.0115 0.13672 0.0117 0.28675 0.0118 0.56366-0.11254 0.72852-0.40039 0.03369-0.054 0.06121-0.1117 0.08203-0.17188 0.0068-0.0209 0.02162-0.0326 0.02734-0.0547l1.8828-7.2871 13.07 6.5352v8.8574c-0.00024 0.0117-0.00024 0.0215 0 0.0332 0.000418 0.0224 0.01197 0.0371 0.01367 0.0586 0.0058 0.055 0.01689 0.10928 0.0332 0.16211 0.09696 0.37137 0.39193 0.57072 0.71875 0.59961 0.03061 0.003 0.05905 0.0134 0.08984 0.0137 0.03065-0.00024 0.05937-0.0105 0.08984-0.0137 0.33152-0.0291 0.63221-0.23374 0.72461-0.61523 0.01493-0.0491 0.02539-0.0994 0.03125-0.15039 0.0015-0.02 0.01133-0.0339 0.01172-0.0547 0.00024-0.0117 0.00024-0.0215 0-0.0332v-8.8574l13.07-6.5352 1.8828 7.2871c0.005722 0.0221 0.020542 0.0338 0.027344 0.0547 0.020686 0.0609 0.048205 0.11917 0.082031 0.17383 0.16819 0.29233 0.45252 0.41369 0.74414 0.39649 0.043856-0.00052 0.087606-0.004 0.13086-0.0117 0.035801-0.007 0.068779-0.0161 0.10352-0.0274 0.057832-0.0187 0.11349-0.0436 0.16602-0.0742 0.064905-0.0362 0.1203-0.0815 0.17383-0.13282 0.00462-0.005 0.00918-0.0103 0.013672-0.0156 0.055301-0.0557 0.10172-0.11632 0.13867-0.1875 0.029101-0.0553 0.052026-0.11355 0.06836-0.17383 0.00648-0.0274 0.013995-0.0531 0.017578-0.082 0.020556-0.11813 0.015897-0.23927-0.013672-0.35547l-2.1211-8.2031v-6.9727c0.020048-0.10517 0.020048-0.21319 0-0.31836v-6.5352-7.707c0.001465-0.0214 0.002116-0.0429 0.001953-0.0644 0.00083838-0.0398-0.001119-0.0796-0.005859-0.11914-0.019989-0.24823-0.14776-0.47523-0.34961-0.6211l-14.459-10.459c-0.2009-0.15628-0.77426-0.16555-1.0293-0.0183zm-0.35544 2.3777v1.0801l-4.5352 2.2676zm1.7129 0 4.5352 3.3496-4.5352-2.2676zm-1.7129 2.9824v5.2656l-6.4355 3.2168-5.2656-2.6328zm1.7129 0.002 11.699 5.8496-5.2637 2.6309-6.4355-3.2168zm0 7.1641 4.5352 2.2676-4.5352 2.2676zm-1.7129 0.002v4.5312l-4.5332-2.2656zm-12.779 0.0918 4.3926 2.1992-4.3926 2.1973zm27.271 0v4.3945l-4.3926-2.1953zm-20.979 3.1504 5.3926 2.6992-5.2754 2.6367-5.3535-2.6758-0.04297-0.0215 5.2793-2.6387zm14.686 0 5.25 2.623-5.3984 2.6992-5.2441-2.623zm-8.1992 4.0527v4.4688l-4.4688-2.2344zm1.7129 0 4.4375 2.2188-4.4375 2.2188zm-14.492 0.0254 4.4727 2.2266-4.4727 2.2363zm27.271 0v4.4648l-4.4727-2.2383zm-6.375 3.1758 5.2969 2.6484-5.332 2.666-5.2969-2.6484zm-14.521 0.002 5.3301 2.6641-5.3301 2.666-5.3301-2.666zm6.4043 4.0273v4.5039l-4.5039-2.252zm1.7129 0.002 4.4688 2.2344-4.4688 2.2344zm-14.492 0.0195 4.4668 2.2344-4.4668 2.2344zm27.271 0v4.4688l-4.4688-2.2344zm-20.902 3.1856 6.4102 3.2051v5.3242l-11.738-5.8672zm14.533 0 5.3242 2.6621-11.734 5.8672v-5.3242z" style="color-rendering:auto;text-decoration-color:#000000;color:#000000;shape-rendering:auto;solid-color:#000000;stroke:#5e5e5e;text-decoration-line:none;stroke-width:3.2;fill:#666;mix-blend-mode:normal;block-progression:tb;text-indent:0;image-rendering:auto;white-space:normal;text-decoration-style:solid;isolation:auto;stroke-dashoffset:7.0362;stroke-linecap:round;text-transform:none"/>
   <g id="g32319" transform="translate(0 -61.165)">
    <path id="path32240" d="m-16.008 950.22a0.85009 0.85009 0 0 0 -0.02344 0.002 0.85009 0.85009 0 0 0 -0.02734 0.002 0.85009 0.85009 0 0 0 -0.05273 0.006 0.85009 0.85009 0 0 0 -0.04687 0.008 0.85009 0.85009 0 0 0 -0.03711 0.01 0.85009 0.85009 0 0 0 -0.0332 0.01 0.85009 0.85009 0 0 0 -0.05859 0.0195 0.85009 0.85009 0 0 0 -0.01367 0.006 0.85009 0.85009 0 0 0 -0.0625 0.0273 0.85009 0.85009 0 0 0 -0.01953 0.01 0.85009 0.85009 0 0 0 -0.03906 0.0234 0.85009 0.85009 0 0 0 -0.05664 0.0371 0.85009 0.85009 0 0 0 -0.0059 0.002l-14.301 10.406a0.85032 0.85032 0 0 0 -0.54102 0.76172 0.85009 0.85009 0 0 0 0 0.004 0.85032 0.85032 0 0 0 0 0.0254 0.85009 0.85009 0 0 0 -0.002 0.0215 0.85009 0.85009 0 0 0 0 0.008 0.85009 0.85009 0 0 0 0 0.004v7.7578h0.002v6.4707a0.85009 0.85009 0 0 0 -0.002 0.43164v6.9375l-2.1172 8.1894a0.85032 0.85032 0 1 0 1.6465 0.42578l1.8828-7.2871 13.082 6.541v0.84961 8.002a0.85059 0.85059 0 0 0 1.7012 0v-8.002-0.85157l13.08-6.5391 1.8848 7.2871a0.85032 0.85032 0 0 0 1.6465 -0.42578l-2.1211-8.2031v-6.9726a0.85009 0.85009 0 0 0 0 -0.31836v-6.5352-7.707a0.85009 0.85009 0 0 0 0.001953 -0.0645 0.85032 0.85032 0 0 0 -0.005859 -0.11914 0.85054 0.85054 0 0 0 -0.34961 -0.6211l-14.459-10.45a0.85009 0.85009 0 0 0 -0.25586 -0.13868 0.85009 0.85009 0 0 0 -0.0625 -0.0176 0.85009 0.85009 0 0 0 -0.17188 -0.0254 0.85009 0.85009 0 0 0 -0.01563 -0.002 0.85009 0.85009 0 0 0 -0.02344 0 0.85009 0.85009 0 0 0 -0.02344 0zm0.875 2.5137 4.9648 3.5898-4.9648-2.4805v-1.1094zm-1.7012 0.006v1.1016l-4.8398 2.4199 4.8398-3.5215zm0 3.0039-0.002 5.2656-6.4395 3.2188-5.2656-2.6328 11.707-5.8516zm1.7012 0 11.705 5.8535-5.2637 2.6309-6.4414-3.2207v-5.2637zm-1.7012 7.166v4.5391l-4.5391-2.2695 4.5391-2.2695zm1.7012 0 4.541 2.2695-4.541 2.2695v-4.5391zm-14.492 0.0801 4.4141 2.207-4.4141 2.207v-4.4141zm27.281 0.002v4.4102l-4.4121-2.2051 4.4121-2.2051zm-20.967 3.1562 5.3965 2.6973-5.2949 2.6465-5.3965-2.6973 5.2949-2.6465zm14.654 0 5.2656 2.6309-5.3984 2.6992-5.2637-2.6328 5.3965-2.6973zm-8.1797 4.0586v4.4727l-4.4727-2.2363 4.4727-2.2363zm1.7031 0 4.4434 2.2207-4.4434 2.2207v-4.4414zm12.791 0.0137v4.4805l-4.4805-2.2402 4.4805-2.2402zm-27.283 0.002 4.4785 2.2383-4.4785 2.2402v-4.4785zm20.902 3.1875 5.2969 2.6484-5.332 2.666-5.2969-2.6484 5.332-2.666zm-14.521 0.002 5.3301 2.6641-5.3301 2.666-5.3301-2.666 5.3301-2.6641zm6.4102 4.0254v0.0293 4.4805l-4.5098-2.2559 4.5098-2.2539zm1.7012 0 4.4746 2.2383-4.4746 2.2363v-4.4746zm12.791 0.0117v4.4844l-4.4824-2.2422 4.4824-2.2422zm-27.283 0.002 4.4805 2.2402-4.4805 2.2402v-4.4805zm6.3809 3.1914 6.4102 3.2051v5.3301l-11.744-5.8691 5.334-2.666zm14.521 0 5.3301 2.666-11.74 5.8691v-5.3301l6.4102-3.2051z" style="color-rendering:auto;text-decoration-color:#000000;color:#000000;shape-rendering:auto;solid-color:#000000;text-decoration-line:none;fill:#8b8686;mix-blend-mode:normal;block-progression:tb;text-indent:0;image-rendering:auto;white-space:normal;text-decoration-style:solid;isolation:auto;text-transform:none"/>
    <path id="path32310" style="color-rendering:auto;text-decoration-color:#000000;color:#000000;shape-rendering:auto;solid-color:#000000;text-decoration-line:none;fill:#cccbcb;mix-blend-mode:normal;block-progression:tb;text-indent:0;image-rendering:auto;white-space:normal;text-decoration-style:solid;isolation:auto;text-transform:none" d="m-15.489 950.4 14.301 10.406c0.34455 0.25212 0.52881 0.4226 0.54102 0.7617l0.002 21.655 2.1172 8.1894c0.28387 1.0977-1.3626 1.5235-1.6465 0.4258l-1.8828-7.2871-13.082 6.541v8.8516c0.02554 1.1362-1.68 1.1713-1.7012 0.035-0.00024-0.0117-0.00024-0.0233 0-0.035v-49.293l0.32227-0.2324c0.37319-0.27879 0.72029-0.23871 1.0293-0.018zm0.34958 17.066 12.065-5.8024-12.065-8.9066zm0.002 1.9426v5.286l12.789-6.4059v-5.2816zm-0.002 7.1962v5.3536l12.791-6.3839v-5.3386zm12.791 6.2204v-5.3643l-12.791 6.3965v5.33z"/>
    <path id="path32308" d="m-16.479 950.4-14.301 10.406c-0.34455 0.25212-0.52881 0.4226-0.54102 0.7617l-0.002 21.655-2.1172 8.1894c-0.28387 1.0977 1.3626 1.5235 1.6465 0.4258l1.8828-7.2871 13.082 6.541v8.8516c-0.02554 1.1362 1.68 1.1713 1.7012 0.035 0.00024-0.0117 0.00024-0.0233 0-0.035v-49.293l-0.32227-0.2324c-0.37319-0.27879-0.72029-0.23871-1.0293-0.018zm-0.34958 17.066-12.065-5.8024 12.065-8.9066zm-0.002 1.9426v5.286l-12.789-6.4059v-5.2816zm0.002 7.1962v5.3536l-12.791-6.3839v-5.3386zm-12.791 6.2204v-5.3643l12.791 6.3965v5.33z" style="color-rendering:auto;text-decoration-color:#000000;color:#000000;shape-rendering:auto;solid-color:#000000;text-decoration-line:none;fill:#fff;mix-blend-mode:normal;block-progression:tb;text-indent:0;image-rendering:auto;white-space:normal;text-decoration-style:solid;isolation:auto;text-transform:none"/>
   </g>
  </g>
 </g>
</svg>
