<?xml version="1.0" encoding="UTF-8" standalone="no"?>
<svg id="svg4205" xmlns:rdf="http://www.w3.org/1999/02/22-rdf-syntax-ns#" xmlns="http://www.w3.org/2000/svg" viewBox="0 0 64 64.000001" height="64" width="64" version="1.1" xmlns:cc="http://creativecommons.org/ns#" xmlns:dc="http://purl.org/dc/elements/1.1/">
 <g id="layer1" transform="translate(-23.056 -898.02)">
  <path id="path28591" d="m32 6.0723l-17.227 8.6137v33.314l17.227 8.613 17.227-8.613v-8.639l3.277-1.687-3.277-5.674v-17.314l-17.227-8.6137z" style="stroke-linejoin:round;stroke-dashoffset:7.0362;stroke:#707070;stroke-linecap:round;stroke-width:3;fill:#fff" transform="translate(23.056 898.02)"/>
  <path id="path5020" style="fill-opacity:.0039216" d="m55.056 930.02-32 16 32 16 32-16-32-16z"/>
  <path id="path5029" d="m32 6.0723v34.541 16l17.227-8.613v-8.639l3.277-1.687-3.277-5.674v-17.314l-17.227-8.6137z" style="fill:#fff" transform="translate(23.056 898.02)"/>
  <path id="path5044" style="fill:#96bcf0" d="m70.129 928.27-12.92 6.46v-12l12.92-6.46z"/>
  <path id="path5058" style="fill:#b3b3b3" d="m37.83 912.7 17.227-8.6131v50.541l-17.227-8.6134z"/>
  <path id="path5002" style="fill:#f9f9f9" d="m55.056 904.09-17.226 8.6131 17.226 8.6134 17.227-8.6134-17.227-8.6131z"/>
  <path id="path5060" style="fill:none" d="m32 6.0723l-17.227 8.6137v33.314l17.227 8.613 17.227-8.613v-33.314l-17.227-8.6137z" transform="translate(23.056 898.02)"/>
  <path id="path32008" d="m49.227 32-17.227 8.613l3.3906 5.8711 17.113-8.8105z" style="fill:#e6e6e6" transform="translate(23.056 898.02)"/>
 </g>
</svg>
